<?xml version="1.0" encoding="UTF-8" standalone="no"?><svg xmlns="http://www.w3.org/2000/svg" xmlns:xlink="http://www.w3.org/1999/xlink" contentStyleType="text/css" height="457px" preserveAspectRatio="none" style="width:291px;height:457px;background:#FFFFFF;" version="1.1" viewBox="0 0 291 457" width="291px" zoomAndPan="magnify"><defs/><g><!--MD5=[e8de2477f0619782a88ba6174d99456f]
class Artisan--><g id="elem_Artisan"><rect codeLine="1" fill="#F1F1F1" height="96.8906" id="Artisan" rx="2.5" ry="2.5" style="stroke:#181818;stroke-width:0.5;" width="162" x="7" y="7"/><ellipse cx="58.25" cy="23" fill="#ADD1B2" rx="11" ry="11" style="stroke:#181818;stroke-width:1.0;"/><path d="M60.5938,18.6719 C59.6563,18.2344 59.0625,18.0938 58.1875,18.0938 C55.5625,18.0938 53.5625,20.1719 53.5625,22.8906 L53.5625,24.0156 C53.5625,26.5938 55.6719,28.4844 58.5625,28.4844 C59.7813,28.4844 60.9375,28.1875 61.6875,27.6406 C62.2656,27.2344 62.5938,26.7813 62.5938,26.3906 C62.5938,25.9375 62.2031,25.5469 61.7344,25.5469 C61.5156,25.5469 61.3125,25.625 61.125,25.8125 C60.6719,26.2969 60.6719,26.2969 60.4844,26.3906 C60.0625,26.6563 59.375,26.7813 58.6094,26.7813 C56.5625,26.7813 55.2656,25.6875 55.2656,23.9844 L55.2656,22.8906 C55.2656,21.1094 56.5156,19.7969 58.25,19.7969 C58.8281,19.7969 59.4375,19.9531 59.9063,20.2031 C60.3906,20.4844 60.5625,20.7031 60.6563,21.1094 C60.7188,21.5156 60.75,21.6406 60.8906,21.7656 C61.0313,21.9063 61.2656,22.0156 61.4844,22.0156 C61.75,22.0156 62.0156,21.875 62.1875,21.6563 C62.2969,21.5 62.3281,21.3125 62.3281,20.8906 L62.3281,19.4688 C62.3281,19.0313 62.3125,18.9063 62.2188,18.75 C62.0625,18.4844 61.7813,18.3438 61.4844,18.3438 C61.1875,18.3438 60.9844,18.4375 60.7656,18.75 L60.5938,18.6719 Z " fill="#000000"/><text fill="#000000" font-family="sans-serif" font-size="14" lengthAdjust="spacing" textLength="51" x="78.75" y="27.8467">Artisan</text><line style="stroke:#181818;stroke-width:0.5;" x1="8" x2="168" y1="39" y2="39"/><text fill="#000000" font-family="sans-serif" font-size="14" lengthAdjust="spacing" textLength="79" x="13" y="55.9951">salaire : int</text><text fill="#000000" font-family="sans-serif" font-size="14" lengthAdjust="spacing" textLength="150" x="13" y="72.292">coordonnées : String</text><line style="stroke:#181818;stroke-width:0.5;" x1="8" x2="168" y1="79.5938" y2="79.5938"/><text fill="#000000" font-family="sans-serif" font-size="14" lengthAdjust="spacing" textLength="120" x="13" y="96.5889">getPayeArtisan()</text></g><!--MD5=[7231450f633845da6e92cf0373678125]
class Chantier--><g id="elem_Chantier"><rect codeLine="6" fill="#F1F1F1" height="113.1875" id="Chantier" rx="2.5" ry="2.5" style="stroke:#181818;stroke-width:0.5;" width="142" x="17" y="337"/><ellipse cx="53.6" cy="353" fill="#ADD1B2" rx="11" ry="11" style="stroke:#181818;stroke-width:1.0;"/><path d="M55.9438,348.6719 C55.0063,348.2344 54.4125,348.0938 53.5375,348.0938 C50.9125,348.0938 48.9125,350.1719 48.9125,352.8906 L48.9125,354.0156 C48.9125,356.5938 51.0219,358.4844 53.9125,358.4844 C55.1313,358.4844 56.2875,358.1875 57.0375,357.6406 C57.6156,357.2344 57.9438,356.7813 57.9438,356.3906 C57.9438,355.9375 57.5531,355.5469 57.0844,355.5469 C56.8656,355.5469 56.6625,355.625 56.475,355.8125 C56.0219,356.2969 56.0219,356.2969 55.8344,356.3906 C55.4125,356.6563 54.725,356.7813 53.9594,356.7813 C51.9125,356.7813 50.6156,355.6875 50.6156,353.9844 L50.6156,352.8906 C50.6156,351.1094 51.8656,349.7969 53.6,349.7969 C54.1781,349.7969 54.7875,349.9531 55.2563,350.2031 C55.7406,350.4844 55.9125,350.7031 56.0063,351.1094 C56.0688,351.5156 56.1,351.6406 56.2406,351.7656 C56.3813,351.9063 56.6156,352.0156 56.8344,352.0156 C57.1,352.0156 57.3656,351.875 57.5375,351.6563 C57.6469,351.5 57.6781,351.3125 57.6781,350.8906 L57.6781,349.4688 C57.6781,349.0313 57.6625,348.9063 57.5688,348.75 C57.4125,348.4844 57.1313,348.3438 56.8344,348.3438 C56.5375,348.3438 56.3344,348.4375 56.1156,348.75 L55.9438,348.6719 Z " fill="#000000"/><text fill="#000000" font-family="sans-serif" font-size="14" lengthAdjust="spacing" textLength="62" x="72.4" y="357.8467">Chantier</text><line style="stroke:#181818;stroke-width:0.5;" x1="18" x2="158" y1="369" y2="369"/><text fill="#000000" font-family="sans-serif" font-size="14" lengthAdjust="spacing" textLength="130" x="23" y="385.9951">dateDebut : DATE</text><text fill="#000000" font-family="sans-serif" font-size="14" lengthAdjust="spacing" textLength="106" x="23" y="402.292">dateFin : DATE</text><text fill="#000000" font-family="sans-serif" font-size="14" lengthAdjust="spacing" textLength="112" x="23" y="418.5889">adresse : String</text><line style="stroke:#181818;stroke-width:0.5;" x1="18" x2="158" y1="425.8906" y2="425.8906"/><text fill="#000000" font-family="sans-serif" font-size="14" lengthAdjust="spacing" textLength="92" x="23" y="442.8857">getAdresse()</text></g><!--MD5=[ad0feda0bfa01980b1dda5b6225f9fe0]
class Travailler--><g id="elem_Travailler"><rect codeLine="12" fill="#F1F1F1" height="113.1875" id="Travailler" rx="2.5" ry="2.5" style="stroke:#181818;stroke-width:0.5;" width="159" x="125.5" y="164"/><ellipse cx="167.95" cy="180" fill="#ADD1B2" rx="11" ry="11" style="stroke:#181818;stroke-width:1.0;"/><path d="M170.2938,175.6719 C169.3563,175.2344 168.7625,175.0938 167.8875,175.0938 C165.2625,175.0938 163.2625,177.1719 163.2625,179.8906 L163.2625,181.0156 C163.2625,183.5938 165.3719,185.4844 168.2625,185.4844 C169.4813,185.4844 170.6375,185.1875 171.3875,184.6406 C171.9656,184.2344 172.2938,183.7813 172.2938,183.3906 C172.2938,182.9375 171.9031,182.5469 171.4344,182.5469 C171.2156,182.5469 171.0125,182.625 170.825,182.8125 C170.3719,183.2969 170.3719,183.2969 170.1844,183.3906 C169.7625,183.6563 169.075,183.7813 168.3094,183.7813 C166.2625,183.7813 164.9656,182.6875 164.9656,180.9844 L164.9656,179.8906 C164.9656,178.1094 166.2156,176.7969 167.95,176.7969 C168.5281,176.7969 169.1375,176.9531 169.6063,177.2031 C170.0906,177.4844 170.2625,177.7031 170.3563,178.1094 C170.4188,178.5156 170.45,178.6406 170.5906,178.7656 C170.7313,178.9063 170.9656,179.0156 171.1844,179.0156 C171.45,179.0156 171.7156,178.875 171.8875,178.6563 C171.9969,178.5 172.0281,178.3125 172.0281,177.8906 L172.0281,176.4688 C172.0281,176.0313 172.0125,175.9063 171.9188,175.75 C171.7625,175.4844 171.4813,175.3438 171.1844,175.3438 C170.8875,175.3438 170.6844,175.4375 170.4656,175.75 L170.2938,175.6719 Z " fill="#000000"/><text fill="#000000" font-family="sans-serif" font-size="14" lengthAdjust="spacing" textLength="66" x="188.05" y="184.8467">Travailler</text><line style="stroke:#181818;stroke-width:0.5;" x1="126.5" x2="283.5" y1="196" y2="196"/><text fill="#000000" font-family="sans-serif" font-size="14" lengthAdjust="spacing" textLength="94" x="131.5" y="212.9951">nbHeure : int</text><text fill="#000000" font-family="sans-serif" font-size="14" lengthAdjust="spacing" textLength="147" x="131.5" y="229.292">debutMission : DATE</text><text fill="#000000" font-family="sans-serif" font-size="14" lengthAdjust="spacing" textLength="123" x="131.5" y="245.5889">finMission : DATE</text><line style="stroke:#181818;stroke-width:0.5;" x1="126.5" x2="283.5" y1="252.8906" y2="252.8906"/><text fill="#000000" font-family="sans-serif" font-size="14" lengthAdjust="spacing" textLength="99" x="131.5" y="269.8857">calculerPaye()</text></g><ellipse cx="88" cy="220.5" fill="#000000" rx="2" ry="2" style="stroke:none;stroke-width:1.0;"/><!--MD5=[6152609d1a6e8f4b7217a06eed755817]
link Artisan to apoint1127001--><g id="link_Artisan_apoint1127001"><path d="M88,104.085 C88,148.437 88,209.101 88,218.309 " fill="none" id="Artisan-apoint1127001" style="stroke:#181818;stroke-width:1.0;"/><text fill="#000000" font-family="sans-serif" font-size="13" lengthAdjust="spacing" textLength="23" x="63.3828" y="124.0559">1..*</text></g><!--MD5=[a5b0ecd86406279697fda14eb0467e74]
link apoint1127001 to Chantier--><g id="link_apoint1127001_Chantier"><path d="M88,222.592 C88,231.324 88,290.672 88,336.797 " fill="none" id="apoint1127001-Chantier" style="stroke:#181818;stroke-width:1.0;"/><text fill="#000000" font-family="sans-serif" font-size="13" lengthAdjust="spacing" textLength="23" x="63.5984" y="326.0358">0..*</text></g><!--MD5=[bd35e921f8a472bbeab67e1bcda37317]
link apoint1127001 to Travailler--><g id="link_apoint1127001_Travailler"><path d="M90.2852,220.5 C101.9359,220.5 113.587,220.5 125.237,220.5 " fill="none" id="apoint1127001-Travailler" style="stroke:#181818;stroke-width:1.0;stroke-dasharray:7.0,7.0;"/></g><!--MD5=[92579944c0c2087b878e46d1b46b38cf]
@startuml
class Artisan {
    salaire : int 
    coordonnées : String 
    getPayeArtisan()
}
class Chantier {
    dateDebut : DATE 
    dateFin : DATE 
    adresse : String
    getAdresse()
}
class Travailler{
    nbHeure : int
    debutMission : DATE 
    finMission : DATE 
    calculerPaye()
}

Artisan "1..*" - - "0..*" Chantier
(Artisan, Chantier) .. Travailler
@enduml

PlantUML version 1.2022.2(Sat Mar 05 16:30:19 UTC 2022)
(GPL source distribution)
Java Runtime: Java(TM) SE Runtime Environment
JVM: Java HotSpot(TM) 64-Bit Server VM
Default Encoding: UTF-8
Language: en
Country: US
--></g></svg>